<?xml version="1.0" encoding="UTF-8" standalone="no"?>
<!-- Created with Inkscape (http://www.inkscape.org/) -->

<svg
   xmlns:osb="http://www.openswatchbook.org/uri/2009/osb"
   xmlns:dc="http://purl.org/dc/elements/1.1/"
   xmlns:cc="http://creativecommons.org/ns#"
   xmlns:rdf="http://www.w3.org/1999/02/22-rdf-syntax-ns#"
   xmlns:svg="http://www.w3.org/2000/svg"
   xmlns="http://www.w3.org/2000/svg"
   xmlns:xlink="http://www.w3.org/1999/xlink"
   xmlns:sodipodi="http://sodipodi.sourceforge.net/DTD/sodipodi-0.dtd"
   xmlns:inkscape="http://www.inkscape.org/namespaces/inkscape"
   width="824.22363"
   height="1107.9785"
   id="svg3922"
   version="1.1"
   inkscape:version="0.48.5 r10040"
   sodipodi:docname="CodingPiratesGameJam_jaronly.svg"
   inkscape:export-filename="/Users/ph/Desktop/CodingPiratesGameJam.png"
   inkscape:export-xdpi="300.01495"
   inkscape:export-ydpi="300.01495">
  <defs
     id="defs3924">
    <linearGradient
       id="CutContour">
      <stop
         style="stop-color:#ff00ff;stop-opacity:1;"
         offset="0"
         id="stop3895" />
      <stop
         style="stop-color:#ff00ff;stop-opacity:1;"
         offset="1"
         id="stop3897" />
    </linearGradient>
    <linearGradient
       id="linearGradient5268"
       osb:paint="solid">
      <stop
         style="stop-color:#0000ff;stop-opacity:0;"
         offset="0"
         id="stop5270" />
    </linearGradient>
    <linearGradient
       id="linearGradient5242">
      <stop
         style="stop-color:#000000;stop-opacity:1;"
         offset="0"
         id="stop5244" />
      <stop
         style="stop-color:#005600;stop-opacity:0;"
         offset="1"
         id="stop5246" />
    </linearGradient>
    <linearGradient
       id="linearGradient5233">
      <stop
         style="stop-color:#ffffff;stop-opacity:1;"
         offset="0"
         id="stop5235" />
      <stop
         style="stop-color:#cdcbb6;stop-opacity:0;"
         offset="1"
         id="stop5237" />
    </linearGradient>
    <linearGradient
       x1="120.65"
       y1="1034.1"
       x2="495.22"
       gradientUnits="userSpaceOnUse"
       y2="1026.2"
       id="linearGradient13122"
       gradientTransform="translate(401.3312,66.028784)">
      <stop
         offset="0"
         stop-color="#876c00"
         id="stop13116" />
      <stop
         offset="1"
         stop-opacity="0"
         stop-color="#2b1100"
         id="stop13118"
         style="stop-color:#ffffff;stop-opacity:1;" />
    </linearGradient>
    <radialGradient
       inkscape:collect="always"
       xlink:href="#linearGradient5242"
       id="radialGradient5248"
       cx="-211.25951"
       cy="411.72501"
       fx="-211.25951"
       fy="411.72501"
       r="283.50751"
       gradientTransform="matrix(0.51499472,0.47717066,-0.46897459,0.50614897,238.21293,262.49055)"
       gradientUnits="userSpaceOnUse" />
    <radialGradient
       inkscape:collect="always"
       xlink:href="#linearGradient5242"
       id="radialGradient5250"
       gradientUnits="userSpaceOnUse"
       gradientTransform="matrix(0.67009399,0.61225821,-0.72215459,0.79037152,375.21966,174.00754)"
       cx="-262.7756"
       cy="433.59506"
       fx="-262.7756"
       fy="433.59506"
       r="283.50751" />
    <radialGradient
       inkscape:collect="always"
       xlink:href="#linearGradient5242"
       id="radialGradient5386"
       gradientUnits="userSpaceOnUse"
       gradientTransform="matrix(0.67009399,0.61225821,-0.72215459,0.79037152,375.21966,174.00754)"
       cx="-262.7756"
       cy="433.59506"
       fx="-262.7756"
       fy="433.59506"
       r="283.50751" />
    <radialGradient
       inkscape:collect="always"
       xlink:href="#linearGradient5242"
       id="radialGradient5388"
       gradientUnits="userSpaceOnUse"
       gradientTransform="matrix(0.51499472,0.47717066,-0.46897459,0.50614897,238.21293,262.49055)"
       cx="-211.25951"
       cy="411.72501"
       fx="-211.25951"
       fy="411.72501"
       r="283.50751" />
    <radialGradient
       inkscape:collect="always"
       xlink:href="#linearGradient5242"
       id="radialGradient5390"
       gradientUnits="userSpaceOnUse"
       gradientTransform="matrix(0.51499472,0.47717066,-0.46897459,0.50614897,238.21293,262.49055)"
       cx="-211.25951"
       cy="411.72501"
       fx="-211.25951"
       fy="411.72501"
       r="283.50751" />
    <radialGradient
       inkscape:collect="always"
       xlink:href="#linearGradient5242"
       id="radialGradient5392"
       gradientUnits="userSpaceOnUse"
       gradientTransform="matrix(0.51499472,0.47717066,-0.46897459,0.50614897,238.21293,262.49055)"
       cx="-211.25951"
       cy="411.72501"
       fx="-211.25951"
       fy="411.72501"
       r="283.50751" />
    <radialGradient
       inkscape:collect="always"
       xlink:href="#linearGradient5242"
       id="radialGradient5394"
       gradientUnits="userSpaceOnUse"
       gradientTransform="matrix(0.51499472,0.47717066,-0.46897459,0.50614897,238.21293,262.49055)"
       cx="-211.25951"
       cy="411.72501"
       fx="-211.25951"
       fy="411.72501"
       r="283.50751" />
    <radialGradient
       inkscape:collect="always"
       xlink:href="#linearGradient5242"
       id="radialGradient5396"
       gradientUnits="userSpaceOnUse"
       gradientTransform="matrix(0.51499472,0.47717066,-0.46897459,0.50614897,238.21293,262.49055)"
       cx="-211.25951"
       cy="411.72501"
       fx="-211.25951"
       fy="411.72501"
       r="283.50751" />
    <linearGradient
       inkscape:collect="always"
       xlink:href="#CutContour"
       id="linearGradient3899"
       x1="61.620995"
       y1="544.70715"
       x2="654.02924"
       y2="544.70715"
       gradientUnits="userSpaceOnUse" />
  </defs>
  <sodipodi:namedview
     id="base"
     pagecolor="#ffffff"
     bordercolor="#666666"
     borderopacity="1.0"
     inkscape:pageopacity="0.0"
     inkscape:pageshadow="2"
     inkscape:zoom="0.98994949"
     inkscape:cx="591.84668"
     inkscape:cy="566.44776"
     inkscape:document-units="px"
     inkscape:current-layer="g5462"
     showgrid="false"
     inkscape:window-width="1228"
     inkscape:window-height="756"
     inkscape:window-x="0"
     inkscape:window-y="0"
     inkscape:window-maximized="0"
     fit-margin-top="-20"
     fit-margin-left="10"
     fit-margin-right="-50"
     fit-margin-bottom="-200"
     units="mm" />
  <metadata
     id="metadata3927">
    <rdf:RDF>
      <cc:Work
         rdf:about="">
        <dc:format>image/svg+xml</dc:format>
        <dc:type
           rdf:resource="http://purl.org/dc/dcmitype/StillImage" />
        <dc:title></dc:title>
      </cc:Work>
    </rdf:RDF>
  </metadata>
  <g
     inkscape:label="Layer 1"
     inkscape:groupmode="layer"
     id="layer1"
     transform="translate(-5.3376537,14.491916)">
    <g
       transform="matrix(1.3846775,0,0,1.3846775,121.64228,-632.0407)"
       id="Jam_glass">
      <g
         transform="translate(-59.467,-380.33)"
         id="layer1-5"
         style="fill:#f2f2f2">
        <path
           d="m 88.679,87.723 0.6874,17.873 c 84.912,-2.7946 170.21,2.2291 254.35,2.0623 l -1.3749,-19.936 c -84.554,-15.05 -169.11,-18.896 -253.66,0 z"
           transform="translate(59.467,982.69)"
           id="path5384"
           inkscape:connector-curvature="0"
           style="fill:#f2f2f2" />
        <path
           d="m 140.58,1060.8 0.6874,14.428 c 92.148,-17.588 182.11,-16.98 268.79,1.0306 l 0.6874,-17.519 c -90.899,-10.716 -181.09,-11.925 -270.16,2.0611 z"
           id="path5380"
           inkscape:connector-curvature="0"
           style="fill:#f2f2f2" />
        <path
           d="m 123.37,1088.3 c -7.5769,12.615 -23.479,23.621 -4.3658,43.934 h 312.27 c 15.772,-23.668 4.7466,-27.702 -8.3698,-44.692 -99.387,-11.446 -200.15,-11.968 -299.54,0.7574 z"
           id="path5386"
           inkscape:connector-curvature="0"
           style="fill:#f2f2f2" />
        <path
           d="m 61.869,148.9 c 5.1239,84.167 13.978,165.07 33.684,236.48 82.37,10.691 163.5,8.9602 244.04,1.3749 17.523,-74.347 25.995,-154.35 28.872,-237.85 z"
           transform="translate(59.467,982.69)"
           id="path5388"
           inkscape:connector-curvature="0"
           style="fill:#f2f2f2" />
        <path
           d="m 155.02,1363.9 c -6.4365,16.523 -4.2186,34.775 18.561,57.135 69.94,13.706 138.81,11.425 206.92,-2.1975 16.661,-16.277 20.658,-33.781 17.186,-52.008 -80.084,8.4466 -160.75,10.045 -242.66,-2.93 z"
           id="path5390"
           inkscape:connector-curvature="0"
           style="fill:#f2f2f2" />
      </g>
      <g
         transform="matrix(1,0,0,0.99056,0,9.8552)"
         id="g5452"
         style="fill:#a02c2c">
        <path
           d="m 276.35,671.65 -1.3749,8.9523 39.184,2.2381 c 6.718,-3.2328 4.1488,-6.4656 0,-9.6984 z"
           id="path5454"
           inkscape:connector-curvature="0"
           style="fill:#ececec" />
        <path
           d="m 281.28,699.05 c 20.95,23.402 12.446,34.733 6.8743,47.266 16.041,94.991 -8.2492,164.16 -12.374,246.23 l 30.934,-1.4111 c 11.113,-78.185 26.549,-148.25 27.497,-245.53 10.724,-13.091 6.235,-28.131 2.7497,-43.042 z"
           id="path5456"
           inkscape:connector-curvature="0"
           style="fill:#ececec" />
        <path
           d="m 274.16,679.5 c 5.622,6.416 5.828,12.832 -1.3749,19.248 l 35.746,2.7497 c 2.6079,-5.0102 8.6625,-8.9957 2.7497,-19.248 z"
           id="path5458"
           inkscape:connector-curvature="0"
           style="fill:#ececec" />
        <path
           d="m 285.28,992.55 c 4.4663,17.186 4.6408,34.372 -5.4995,51.557 l 26.81,-4.1246 c 13.586,-16.269 15.01,-32.538 10.312,-48.808 z"
           id="path5460"
           inkscape:connector-curvature="0"
           style="fill:#ececec" />
      </g>
      <g
         transform="matrix(-0.58884,0,0,0.98126,290,16.956)"
         id="g5462"
         style="fill:#a02c2c">
        <path
           d="m 276.35,671.65 -1.3749,8.9523 39.184,2.2381 c 6.718,-3.2328 4.1488,-6.4656 0,-9.6984 z"
           id="path5464"
           inkscape:connector-curvature="0"
           style="fill:#ececec" />
        <path
           d="m 281.28,699.05 c 20.95,23.402 12.446,34.733 6.8743,47.266 16.041,94.991 -8.2492,164.16 -12.374,246.23 l 30.934,-1.4111 c 11.113,-78.185 26.549,-148.25 27.497,-245.53 10.724,-13.091 6.235,-28.131 2.7497,-43.042 z"
           id="path5466"
           inkscape:connector-curvature="0"
           style="fill:#ececec" />
        <path
           d="m 274.16,679.5 c 5.622,6.416 5.828,12.832 -1.3749,19.248 l 35.746,2.7497 c 2.6079,-5.0102 8.6625,-8.9957 2.7497,-19.248 z"
           id="path5468"
           inkscape:connector-curvature="0"
           style="fill:#ececec" />
        <path
           d="m 285.28,992.55 c 4.4663,17.186 4.6408,34.372 -5.4995,51.557 l 26.81,-4.1246 c 13.586,-16.269 15.01,-32.538 10.312,-48.808 z"
           id="path5470"
           inkscape:connector-curvature="0"
           style="fill:#ececec" />
      </g>
    </g>
  </g>
</svg>
